#!OML:ASF F:\VICON\USERDATA\INSTALL\rory3\rory3.ASF
:FULLY-SPECIFIED
:DEGREES
806
root 3.25677 31.8006 -1.95969 -164.917 -9.43055 175.323
lowerback 12.736 -0.709285 -2.62447
upperback 2.96546 -1.49473 2.21307
thorax -3.89794 -0.845856 4.04942
lowerneck -15.9736 4.57819 -8.10411
upperneck 40.0722 5.43762 0.187034
head 17.0467 -0.295013 2.12256
rclavicle -1.19271e-015 5.56597e-015
rhumerus 22.4621 34.0028 -77.3284
rradius 91.6855
rwrist 67.6564
rhand -10.0352 -0.370043
rfingers 7.12502
rthumb 15.9497 -29.7333
lclavicle -1.19271e-015 5.56597e-015
lhumerus 5.14449 -18.8583 84.8298
lradius 55.9671
lwrist -31.6454
lhand -28.2184 27.5381
lfingers 7.12502
lthumb -1.59683 57.5119
rfemur -52.5627 -5.47421 23.804
rtibia 61.9522
rfoot -20.7162 0.849837
rtoes 16.8555
lfemur -26.3928 -0.52335 -20.7159
ltibia 28.6746
lfoot 12.9604 -5.05885
ltoes -17.7441
807
root 3.24483 31.7454 -1.92294 -164.842 -9.19279 175.436
lowerback 13.0039 -0.746916 -2.7087
upperback 3.05798 -1.57551 2.31014
thorax -3.93534 -0.893456 4.21998
lowerneck -16.1711 4.66335 -7.92826
upperneck 39.989 5.67078 -0.0707466
head 17.0616 -0.19828 2.02417
rclavicle -1.74931e-014 -2.62396e-014
rhumerus 23.4551 34.2574 -76.7769
rradius 91.8655
rwrist 67.5003
rhand -9.42318 -0.177789
rfingers 7.12502
rthumb 16.5391 -29.4929
lclavicle -1.74931e-014 -2.62396e-014
lhumerus 5.20756 -18.4354 84.6974
lradius 56.542
lwrist -32.2079
lhand -30.0744 28.6707
lfingers 7.12502
lthumb -3.38929 58.6235
rfemur -53.2167 -5.40618 23.9601
rtibia 62.6004
rfoot -20.8482 0.960685
rtoes 17.136
lfemur -26.4056 -0.64999 -20.617
ltibia 27.8117
lfoot 12.5185 -4.32404
ltoes -18.9936
808
root 3.23196 31.685 -1.8885 -164.611 -8.86839 175.527
lowerback 13.1151 -0.754333 -2.78881
upperback 3.07397 -1.60217 2.364
thorax -3.97317 -0.907936 4.33056
lowerneck -16.2132 4.73004 -7.89454
upperneck 39.9346 5.80237 -0.142269
head 17.041 -0.143507 2.01099
rclavicle -3.1408e-014 6.04305e-014
rhumerus 24.3628 34.4488 -76.248
rradius 92.0432
rwrist 67.3126
rhand -9.05829 0.298682
rfingers 7.12502
rthumb 16.8903 -28.9868
lclavicle -3.1408e-014 6.04305e-014
lhumerus 5.30198 -17.9703 84.6521
lradius 57.1896
lwrist -32.3571
lhand -31.1213 28.8559
lfingers 7.12502
lthumb -4.40029 58.7902
rfemur -54.1337 -5.19649 24.0596
rtibia 63.2836
rfoot -20.8725 0.967526
rtoes 16.8028
lfemur -26.6836 -0.717015 -20.5654
ltibia 27.1274
lfoot 10.9331 -3.47314
ltoes -17.0343
809
root 3.21913 31.6227 -1.8549 -164.353 -8.4836 175.554
lowerback 13.1759 -0.642605 -2.87886
upperback 3.06456 -1.46863 2.28947
thorax -4.02866 -0.838928 4.28409
lowerneck -16.1755 4.74194 -7.54771
upperneck 39.9292 5.72152 -0.214796
head 17.0489 -0.129742 1.90457
rclavicle 3.45885e-014 1.11319e-014
rhumerus 25.0503 34.3079 -75.8866
rradius 92.3162
rwrist 67.1941
rhand -8.67803 0.910922
rfingers 7.12502
rthumb 17.2563 -28.3429
lclavicle 3.45885e-014 1.11319e-014
lhumerus 5.39083 -17.9978 84.495
lradius 58.0417
lwrist -31.6307
lhand -31.3828 28.1631
lfingers 7.12502
lthumb -4.65281 58.092
rfemur -55.1089 -4.87474 24.0505
rtibia 64.0044
rfoot -20.8614 0.817351
rtoes 15.4206
lfemur -27.1108 -0.521337 -20.6678
ltibia 26.6987
lfoot 10.9475 -2.78821
ltoes -20.506
810
root 3.20133 31.5545 -1.82047 -164.105 -8.07336 175.659
lowerback 13.2132 -0.503341 -2.77513
upperback 3.06392 -1.27454 2.1525
thorax -4.07352 -0.74203 4.0501
lowerneck -16.238 4.74108 -7.1031
upperneck 39.9505 5.61456 -0.291172
head 17.1021 -0.111295 1.77846
rclavicle 4.41302e-014 -1.66979e-014
rhumerus 25.7345 33.9771 -75.5859
rradius 92.5513
rwrist 67.0534
rhand -7.62777 0.599888
rfingers 7.12502
rthumb 18.267 -28.5624
lclavicle 4.41302e-014 -1.66979e-014
lhumerus 5.37979 -18.1221 84.2378
lradius 59.1808
lwrist -30.9088
lhand -31.163 27.7744
lfingers 7.12502
lthumb -4.44055 57.7078
rfemur -56.0613 -4.42485 24.0419
rtibia 64.7908
rfoot -20.8913 0.656484
rtoes 14.075
lfemur -27.5657 -0.238597 -20.7283
ltibia 26.3786
lfoot 10.8886 -2.42003
ltoes -20.7454
811
root 3.18021 31.4807 -1.78807 -163.891 -7.69664 175.951
lowerback 13.1827 -0.372969 -2.72126
upperback 3.11763 -1.09765 2.25705
thorax -4.01508 -0.660604 4.09976
lowerneck -16.3049 4.74338 -6.82903
upperneck 39.9079 5.63004 -0.498328
head 17.1188 -0.0845858 1.64407
rclavicle 1.98785e-015 -4.29375e-014
rhumerus 26.6682 33.7591 -74.8869
rradius 92.7837
rwrist 66.7751
rhand -6.89657 0.678148
rfingers 7.12502
rthumb 18.9703 -28.4168
lclavicle 1.98785e-015 -4.29375e-014
lhumerus 5.38929 -17.8726 84.2604
lradius 60.3654
lwrist -30.9472
lhand -30.7787 27.9889
lfingers 7.12502
lthumb -4.06945 57.9298
rfemur -56.8689 -3.88126 24.1665
rtibia 65.566
rfoot -21.0554 0.709483
rtoes 13.8614
lfemur -27.9793 0.0510834 -20.5773
ltibia 26.0644
lfoot 10.8259 -2.16467
ltoes -20.4674
812
root 3.16793 31.413 -1.76251 -163.73 -7.05153 175.95
lowerback 13.2248 -0.190979 -2.93201
upperback 3.13203 -0.891473 2.0849
thorax -4.04118 -0.555939 4.00529
lowerneck -16.2052 4.8229 -6.45286
upperneck 39.8746 5.62504 -0.534508
head 17.0896 -0.0268506 1.5608
rclavicle 1.78906e-014 2.78299e-014
rhumerus 27.2525 33.4713 -74.7178
rradius 93.0053
rwrist 66.5864
rhand -6.52931 0.88048
rfingers 7.12502
rthumb 19.3235 -28.1794
lclavicle 1.78906e-014 2.78299e-014
lhumerus 5.38165 -17.802 84.062
lradius 61.3965
lwrist -30.928
lhand -30.5888 28.1048
lfingers 7.12502
lthumb -3.88602 58.0491
rfemur -57.5343 -3.18081 23.9277
rtibia 66.3178
rfoot -21.3268 0.930049
rtoes 14.4198
lfemur -28.2628 0.400409 -20.7275
ltibia 25.7113
lfoot 10.6441 -1.76339
ltoes -19.8497
